<?xml version="1.0" encoding="UTF-8"?><svg id="Layer_2" xmlns="http://www.w3.org/2000/svg" viewBox="0 0 197.61 87.7"><defs><style>.cls-1{letter-spacing:-.01em;}.cls-2{font-family:NHaasGroteskDSPro-55Rg, 'Neue Haas Grotesk Display Pro';font-size:20.58px;}.cls-3{letter-spacing:-.04em;}.cls-4{letter-spacing:0em;}.cls-5{letter-spacing:.05em;}.cls-5,.cls-6{fill:#56585a;}.cls-7{letter-spacing:0em;}.cls-8{fill:#0f4d8f;font-family:NHaasGroteskDSPro-65Md, 'Neue Haas Grotesk Display Pro';font-size:30.88px;}.cls-9{fill:#f99e1f;}.cls-10{letter-spacing:0em;}.cls-11{fill:none;}.cls-12{letter-spacing:0em;}.cls-6{letter-spacing:.05em;}.cls-13{fill:#a7a9ac;letter-spacing:.05em;}</style></defs><g id="Layer_1-2"><g><g><text class="cls-2" transform="translate(81.47 83.01)"><tspan class="cls-6" x="0" y="0">t</tspan><tspan class="cls-5" x="7.25" y="0">o go digital</tspan><tspan class="cls-13" x="111.3" y="0">.</tspan></text><text class="cls-8" transform="translate(0 61.1)"><tspan x="0" y="0">I</tspan><tspan class="cls-12" x="7.94" y="0">t</tspan><tspan class="cls-3" x="18.34" y="0">’</tspan><tspan x="23.16" y="0">s a G</tspan><tspan class="cls-1" x="87.29" y="0">r</tspan><tspan x="97.66" y="0">e</tspan><tspan class="cls-10" x="114.46" y="0">a</tspan><tspan class="cls-4" x="130.27" y="0">t </tspan><tspan class="cls-7" x="145.71" y="0">Da</tspan><tspan x="182.27" y="0">y</tspan></text></g><g><path class="cls-11" d="M24.91,24.93c-3,3.06-3.34,6.27-3.34,6.27h2.23s.22-2.23,2.66-4.7c2.26-2.29,5.07-2.72,5.07-2.72l-.34-2.16s-3.46,.43-6.27,3.31Z"/><path class="cls-9" d="M29.98,14.19c1.11-.19,2.23-.28,3.4-.28s2.29,.09,3.4,.28L33.38,0l-3.4,14.19Z"/><path class="cls-9" d="M14.19,29.98L0,33.38l3.65,.88H13.93c-.01-.29-.02-.58-.02-.88,0-1.17,.09-2.29,.28-3.4Z"/><path class="cls-9" d="M52.57,29.98c.19,1.11,.31,2.26,.28,3.4,0,.3,0,.59-.02,.88h10.27l3.65-.88-14.19-3.4Z"/><path class="cls-9" d="M40.02,15.05c1.05,.4,2.1,.87,3.09,1.45,.99,.59,1.92,1.24,2.78,1.95l4.17-13.97-10.04,10.57Z"/><path class="cls-9" d="M15.05,26.73c.4-1.05,.87-2.1,1.45-3.09,.59-.99,1.24-1.92,1.95-2.78l-13.97-4.17,10.57,10.04Z"/><path class="cls-9" d="M50.26,23.61c.59,1.02,1.08,2.04,1.45,3.09l10.57-10.01-13.97,4.14c.71,.87,1.36,1.79,1.95,2.78Z"/><path class="cls-9" d="M20.83,18.45c.87-.71,1.79-1.36,2.78-1.95,1.02-.59,2.04-1.08,3.09-1.45L16.69,4.48l4.14,13.97Z"/><path class="cls-9" d="M33.38,16.67c-9.24,0-16.75,7.51-16.75,16.75,0,.28,0,.55,.02,.83H50.11c.01-.27,.02-.55,.02-.83,0-9.24-7.51-16.75-16.75-16.75Zm-6.92,9.83c-2.44,2.47-2.66,4.7-2.66,4.7h-2.23s.34-3.21,3.34-6.27c2.81-2.87,6.27-3.31,6.27-3.31l.34,2.16s-2.81,.43-5.07,2.72Z"/></g></g></g></svg>