<?xml version="1.0" encoding="utf-8"?>
<!-- Generator: Adobe Illustrator 25.2.3, SVG Export Plug-In . SVG Version: 6.00 Build 0)  -->
<svg version="1.1" id="Layer_1" xmlns="http://www.w3.org/2000/svg" xmlns:xlink="http://www.w3.org/1999/xlink" x="0px" y="0px"
	 viewBox="0 0 216 216" style="enable-background:new 0 0 216 216;" xml:space="preserve">
<style type="text/css">
	.st0{fill:#F99D1D;}
	.st1{fill:#26A9E0;}
</style>
<g>
	<g>
		<path class="st0" d="M119,45.8c-3.6-0.6-7.2-0.9-11-0.9s-7.4,0.3-11,0.9l0,0l11-45.9L119,45.8L119,45.8z"/>
		<path class="st0" d="M119,170l-11,45.9L97,170l0,0c3.6,0.6,7.2,0.9,11,0.9S115.4,170.6,119,170L119,170z"/>
	</g>
	<g>
		<path class="st0" d="M45.9,96.9c-0.6,3.6-0.9,7.2-0.9,11c0,3.7,0.3,7.4,0.9,11l0,0L0,107.9L45.9,96.9L45.9,96.9z"/>
		<path class="st0" d="M170.1,96.9l45.9,11l-45.9,11l0,0c0.6-3.6,0.9-7.2,0.9-11C171.1,104.2,170.7,100.5,170.1,96.9L170.1,96.9z"/>
	</g>
	<g>
		<path class="st0" d="M148.5,59.6c-2.8-2.3-5.8-4.4-9-6.3c-3.2-1.9-6.6-3.4-10-4.7l0,0L162,14.4L148.5,59.6L148.5,59.6z"/>
		<path class="st0" d="M86.4,167.2L54,201.4l13.4-45.2l0,0c2.8,2.3,5.8,4.4,9,6.3C79.7,164.4,83,165.9,86.4,167.2L86.4,167.2z"/>
	</g>
	<g>
		<path class="st0" d="M59.7,67.4c-2.3,2.8-4.4,5.8-6.3,9c-1.9,3.2-3.4,6.6-4.7,10l0,0L14.5,53.9L59.7,67.4L59.7,67.4z"/>
		<path class="st0" d="M167.3,129.5l34.3,32.4l-45.2-13.4l0,0c2.3-2.8,4.4-5.8,6.3-9C164.5,136.2,166,132.9,167.3,129.5L167.3,129.5
			z"/>
	</g>
	<g>
		<path class="st0" d="M167.3,86.3c-1.2-3.4-2.8-6.7-4.7-10c-1.9-3.2-4-6.2-6.3-9l0,0l45.2-13.4L167.3,86.3L167.3,86.3z"/>
		<path class="st0" d="M59.7,148.5l-45.2,13.4l34.3-32.4l0,0c1.2,3.4,2.8,6.7,4.7,10C55.3,142.7,57.4,145.7,59.7,148.5L59.7,148.5z"
			/>
	</g>
	<g>
		<path class="st0" d="M86.4,48.6c-3.4,1.2-6.7,2.8-10,4.7c-3.2,1.9-6.2,4-9,6.3l0,0L54,14.4L86.4,48.6L86.4,48.6z"/>
		<path class="st0" d="M148.6,156.2l13.4,45.2l-32.4-34.3l0,0c3.4-1.2,6.7-2.8,10-4.7C142.8,160.6,145.8,158.5,148.6,156.2
			L148.6,156.2z"/>
	</g>
	<path class="st1" d="M108,107.9"/>
	<path class="st0" d="M162.2,107.9c0,29.9-24.3,54.2-54.2,54.2s-54.2-24.3-54.2-54.2S78.1,53.7,108,53.7S162.2,78,162.2,107.9z
		 M102,76.7l-1.1-7c0,0-11.2,1.4-20.3,10.7c-9.7,9.9-10.8,20.3-10.8,20.3l7.2,0c0,0,0.7-7.2,8.6-15.2C92.9,78.1,102,76.7,102,76.7z"
		/>
</g>
</svg>
